grf
version=1
nRows=9
nColumns=37
inDegrees=no
endheader
time	ground_force_1_vx	ground_force_1_vy	ground_force_1_vz	ground_force_1_px	ground_force_1_py	ground_force_1_pz	ground_moment_1_mx	ground_moment_1_my	ground_moment_1_mz	ground_force_2_vx	ground_force_2_vy	ground_force_2_vz	ground_force_2_px	ground_force_2_py	ground_force_2_pz	ground_moment_2_mx	ground_moment_2_my	ground_moment_2_mz	ground_force_3_vx	ground_force_3_vy	ground_force_3_vz	ground_force_3_px	ground_force_3_py	ground_force_3_pz	ground_moment_3_mx	ground_moment_3_my	ground_moment_3_mz	ground_force_4_vx	ground_force_4_vy	ground_force_4_vz	ground_force_4_px	ground_force_4_py	ground_force_4_pz	ground_moment_4_mx	ground_moment_4_my	ground_moment_4_mz
      3.42000000	      0.00000000	     -0.00000000	      0.00000000	      0.00000000	      0.00000000	      0.00000000	      0.00000000	      0.00000000	      0.00000000	      5.88789368	     76.97366333	   -595.37939453	   -262.60456953	  -1195.39121260	      0.00000000	      0.00000000	      0.00000000	   9183.45663454	     23.59706196	    -78.12612358	   -621.95953369	   -285.45686210	   -591.77647030	      0.00000000	      0.00000000	     -0.00000000	  -9602.47127392	      0.00000000	     -0.00000000	      0.00000000	      0.00000000	      0.00000000	      0.00000000	      0.00000000	      0.00000000	      0.00000000
      3.43000000	      0.00000000	     -0.00000000	      0.00000000	      0.00000000	      0.00000000	      0.00000000	      0.00000000	      0.00000000	      0.00000000	      6.10797644	     81.16205597	   -608.88220215	   -260.70147593	  -1195.56231131	      0.00000000	      0.00000000	     -0.00000000	   9430.20936288	     20.75633466	    -83.20972624	   -635.18353271	   -282.43027803	   -590.24013998	      0.00000000	      0.00000000	      0.00000000	  -9612.88487409	      0.00000000	     -0.00000000	      0.00000000	      0.00000000	      0.00000000	      0.00000000	      0.00000000	      0.00000000	      0.00000000
      3.44000000	      0.00000000	     -0.00000000	      0.00000000	      0.00000000	      0.00000000	      0.00000000	      0.00000000	      0.00000000	      0.00000000	      5.33166599	     85.73274994	   -621.32653809	   -258.12332131	  -1196.15232675	      0.00000000	      0.00000000	      0.00000000	   8919.49481362	     18.64888369	    -88.77346202	   -646.27966309	   -278.90798736	   -589.02369798	      0.00000000	      0.00000000	     -0.00000000	  -9575.95821212	      0.00000000	     -0.00000000	      0.00000000	      0.00000000	      0.00000000	      0.00000000	      0.00000000	      0.00000000	      0.00000000
      3.45000000	      0.00000000	     -0.00000000	      0.00000000	      0.00000000	      0.00000000	      0.00000000	      0.00000000	      0.00000000	      0.00000000	      4.32917452	     91.04917145	   -633.95800781	   -256.25443141	  -1196.65862105	      0.00000000	      0.00000000	      0.00000000	   8915.66224787	     16.60863997	    -95.29910424	   -659.23675537	   -275.93949058	   -587.29787567	      0.00000000	      0.00000000	      0.00000000	  -9337.35571645	      0.00000000	     -0.00000000	      0.00000000	      0.00000000	      0.00000000	      0.00000000	      0.00000000	      0.00000000	      0.00000000
      3.46000000	      0.00000000	     -0.00000000	      0.00000000	      0.00000000	      0.00000000	      0.00000000	      0.00000000	      0.00000000	      0.00000000	      3.42003369	     95.16567993	   -646.33679199	   -253.53812152	  -1196.70387009	      0.00000000	      0.00000000	      0.00000000	   8881.83752726	     15.31782122	   -101.44207135	   -669.59466553	   -272.36095237	   -585.71525765	      0.00000000	      0.00000000	     -0.00000000	  -9207.50508515	      0.00000000	     -0.00000000	      0.00000000	      0.00000000	      0.00000000	      0.00000000	      0.00000000	      0.00000000	      0.00000000
      3.47000000	      0.00000000	     -0.00000000	      0.00000000	      0.00000000	      0.00000000	      0.00000000	      0.00000000	      0.00000000	      0.00000000	      2.87998247	    101.03127289	   -657.98974609	   -250.50551551	  -1197.71503151	      0.00000000	      0.00000000	      0.00000000	   8483.35397240	     13.85885439	   -108.03491332	   -677.54595947	   -269.44283938	   -584.37483544	      0.00000000	      0.00000000	     -0.00000000	  -8763.01080496	      0.00000000	     -0.00000000	      0.00000000	      0.00000000	      0.00000000	      0.00000000	      0.00000000	      0.00000000	      0.00000000
      3.48000000	      0.00000000	     -0.00000000	      0.00000000	      0.00000000	      0.00000000	      0.00000000	      0.00000000	      0.00000000	      0.00000000	      2.67970729	    107.73722076	   -667.59503174	   -248.03167891	  -1198.54910372	      0.00000000	      0.00000000	      0.00000000	   8004.85324883	     12.20185143	   -113.86667740	   -684.44879150	   -266.05783517	   -582.76066546	      0.00000000	      0.00000000	     -0.00000000	  -8397.77582807	      0.00000000	     -0.00000000	      0.00000000	      0.00000000	      0.00000000	      0.00000000	      0.00000000	      0.00000000	      0.00000000
      3.49000000	      0.00000000	     -0.00000000	      0.00000000	      0.00000000	      0.00000000	      0.00000000	      0.00000000	      0.00000000	      0.00000000	      2.38712382	    115.65708160	   -676.42492676	   -244.84756698	  -1199.08012455	      0.00000000	      0.00000000	      0.00000000	   7294.46804449	     10.68571954	   -119.41871736	   -688.79650879	   -263.22150307	   -581.47539240	      0.00000000	      0.00000000	     -0.00000000	  -7803.64851274	      0.00000000	     -0.00000000	      0.00000000	      0.00000000	      0.00000000	      0.00000000	      0.00000000	      0.00000000	      0.00000000
      3.50000000	      0.00000000	     -0.00000000	      0.00000000	      0.00000000	      0.00000000	      0.00000000	      0.00000000	      0.00000000	      0.00000000	      3.70346642	    121.46307373	   -685.26464844	   -241.68243052	  -1199.94682854	      0.00000000	      0.00000000	      0.00000000	   6724.56039453	     10.37182100	   -124.60164733	   -692.55664062	   -260.51230023	   -579.90988785	      0.00000000	     -0.00000000	     -0.00000000	  -7377.06321743	      0.00000000	     -0.00000000	      0.00000000	      0.00000000	      0.00000000	      0.00000000	      0.00000000	      0.00000000	      0.00000000
